<?xml version="1.0" encoding="UTF-8" standalone="no"?>
<!-- Created with Inkscape (http://www.inkscape.org/) -->

<svg
   xmlns:dc="http://purl.org/dc/elements/1.1/"
   xmlns:cc="http://creativecommons.org/ns#"
   xmlns:rdf="http://www.w3.org/1999/02/22-rdf-syntax-ns#"
   xmlns:svg="http://www.w3.org/2000/svg"
   xmlns="http://www.w3.org/2000/svg"
   xmlns:sodipodi="http://sodipodi.sourceforge.net/DTD/sodipodi-0.dtd"
   xmlns:inkscape="http://www.inkscape.org/namespaces/inkscape"
   version="1.1"
   id="svg887"
   width="269.59857"
   height="214.31924"
   viewBox="0 0 269.59858 214.31925"
   sodipodi:docname="logo-final-horizontaL.svg"
   inkscape:version="0.92.2 (unknown)">
  <metadata
     id="metadata893">
    <rdf:RDF>
      <cc:Work
         rdf:about="">
        <dc:format>image/svg+xml</dc:format>
        <dc:type
           rdf:resource="http://purl.org/dc/dcmitype/StillImage" />
        <dc:title></dc:title>
      </cc:Work>
    </rdf:RDF>
  </metadata>
  <defs
     id="defs891" />
  <sodipodi:namedview
     pagecolor="#ffffff"
     bordercolor="#666666"
     borderopacity="1"
     objecttolerance="10"
     gridtolerance="10"
     guidetolerance="10"
     inkscape:pageopacity="0"
     inkscape:pageshadow="2"
     inkscape:window-width="1278"
     inkscape:window-height="783"
     id="namedview889"
     showgrid="false"
     inkscape:zoom="4.4194172"
     inkscape:cx="82.837572"
     inkscape:cy="93.272858"
     inkscape:window-x="0"
     inkscape:window-y="1039"
     inkscape:window-maximized="0"
     inkscape:current-layer="svg887"
     fit-margin-top="0"
     fit-margin-left="0"
     fit-margin-right="0"
     fit-margin-bottom="0"
     showguides="true"
     inkscape:guide-bbox="true">
    <sodipodi:guide
       position="53.600004,119.04001"
       orientation="1,0"
       id="guide2382"
       inkscape:locked="false" />
    <sodipodi:guide
       position="40.000003,92.800006"
       orientation="0,1"
       id="guide2384"
       inkscape:locked="false" />
    <sodipodi:guide
       position="192.33306,98.655545"
       orientation="1,0"
       id="guide2399"
       inkscape:locked="false" />
  </sodipodi:namedview>
  <g
     style="display:none"
     inkscape:label="layer main navy copy"
     id="g855"
     inkscape:groupmode="layer"
     transform="translate(-7.4266201,124.81066)">
    <g
       id="g853">
      <path
         inkscape:connector-curvature="0"
         id="path845"
         d="m 52.166319,163.02072 c -3.34787,-0.26279 -9.696,-1.64009 -13.43758,-2.91544 -3.17664,-1.08279 -10.88115,-5.11804 -13.57531,-7.11011 C 17.455359,147.30321 10.493979,138.97793 6.8063843,131.05351 3.0062114,122.88719 0.77670139,113.75462 0.97608039,107.17134 1.3630894,94.392751 2.2626254,89.530688 5.7625353,81.300245 11.65572,67.44173 23.381669,56.275093 37.769339,50.820104 c 3.23825,-1.227763 9.79642,-2.76285 13.50644,-3.161488 2.30406,-0.247572 9.44148,-0.302856 9.66414,-0.07486 0.26371,0.270031 -4.43025,6.946594 -6.32657,8.998742 -0.20515,0.222005 -0.5005,0.647593 -0.65633,0.945743 -0.20312,0.388633 -1.18998,0.73703 -3.48599,1.230679 -4.19311,0.901532 -7.47063,2.092033 -11.69572,4.248271 -4.50548,2.299325 -7.3352,4.28244 -10.99042,7.70226 -7.26343,6.795648 -12.075451,15.646406 -13.76421,25.31652 -0.260022,1.48891 -0.594395,3.322615 -0.743052,4.074929 -0.439264,2.22293 -0.125397,9.51464 0.556058,12.91824 2.051354,10.24571 6.866724,18.99891 14.337724,26.06254 3.05743,2.89073 5.18095,4.42058 9.00424,6.4869 5.90931,3.19375 10.95403,4.71924 17.5639,5.31119 8.97479,0.80374 18.74389,-1.05248 26.60529,-5.05526 3.8697,-1.97033 5.7449,-3.26985 9.83682,-6.81689 0.85862,-0.74427 5.402789,-5.49409 7.269989,-7.59896 1.04553,-1.17862 4.537572,-6.37839 5.715702,-8.51085 2.00331,-3.62611 4.3756,-10.48619 5.25563,-15.19794 1.2726,-6.81359 1.34218,-15.38662 0.18853,-23.223145 -0.41599,-2.82568 -0.71002,-5.185019 -0.65342,-5.242988 0.22036,-0.22564 2.54974,6.262305 3.12673,8.708813 1.03584,4.392111 1.24378,6.034171 1.53385,12.11325 0.28023,5.87284 0.0636,11.13168 -0.62145,15.09105 -0.52481,3.03302 -2.02909,8.88908 -2.63576,10.26092 -0.31365,0.70923 -1.30078,2.96032 -2.19363,5.0024 -2.94505,6.73576 -8.948562,14.67254 -15.036901,19.87912 -2.99759,2.56347 -6.63616,4.88614 -11.42854,7.29544 -4.91764,2.47227 -9.12964,3.83553 -15.28751,4.94795 -3.15803,0.5705 -10.1479,0.80992 -14.24856,0.48804 z m 4.74952,-24.61249 c -8.2069,-1.75961 -13.61123,-4.6338 -19.34389,-10.28766 -3.72261,-3.67143 -5.83306,-6.61554 -8.21069,-11.45392 -2.16847,-4.41275 -3.17192,-7.928 -3.63867,-12.74685 -0.40932,-4.225894 -0.22143,-7.562439 0.6273,-11.139792 0.75349,-3.175867 0.92114,-3.627788 2.80952,-7.573088 1.86731,-3.901289 4.50942,-7.532156 7.44942,-10.237196 2.4494,-2.253642 5.47124,-4.64864 5.87158,-4.653592 0.14211,-0.0018 -0.20306,0.578127 -0.76705,1.288631 -3.5243,4.439861 -6.62162,10.251036 -8.05988,15.121952 -1.148,3.887871 -1.46929,6.649266 -1.29086,11.094496 0.1865,4.646269 1.19817,8.492909 3.23509,12.300579 5.01656,9.37761 13.54131,15.58725 24.88027,18.12342 7.47983,1.67299 17.26404,-1.03571 24.60669,-6.81223 2.87426,-2.26121 2.5287,-1.91682 5.27045,-5.25266 2.8169,-3.42727 4.10646,-5.58369 5.443059,-9.10176 1.67986,-4.42159 2.11788,-6.51229 2.28976,-10.929119 0.1856,-4.769439 -0.46068,-8.971651 -2.04781,-13.314979 l -0.92246,-2.524441 0.88209,-1.275048 c 1.88914,-2.730738 4.150752,-5.898576 5.189222,-7.268577 1.24693,-1.645001 1.30524,-1.618839 2.4861,1.115298 3.9469,9.138499 5.38494,18.762458 4.15803,27.827126 -0.93218,6.88709 -3.48395,13.49583 -7.48671,19.38948 -2.320122,3.41616 -7.116591,8.39813 -10.373421,10.77465 -2.46214,1.79664 -7.83107,4.68661 -10.21507,5.49854 -2.44216,0.83173 -6.92236,1.96684 -9.09564,2.30448 -3.31383,0.51483 -10.77417,0.36952 -13.74643,-0.26774 z m 16.47489,-41.859499 c -1.19784,-0.35277 -2.57246,-0.39126 -7.12428,-0.19948 -8.67608,0.36558 -8.78275,0.35216 -12.75511,-1.60442 -1.89281,-0.9323 -2.23355,-1.00396 -4.00741,-0.84283 -1.59683,0.14507 -2.37209,0.0343 -4.39634,-0.628 -2.31625,-0.757858 -2.48399,-0.871548 -2.9156,-1.976115 -0.28962,-0.741166 -0.75732,-1.298959 -1.27232,-1.517392 -1.04867,-0.444786 -1.51768,-1.782899 -1.51768,-4.330064 0,-3.369178 0.62604,-4.452591 9.47356,-16.394652 4.39154,-5.927534 6.88911,-9.321835 10.98639,-14.930902 1.68004,-2.299929 3.16087,-4.248929 3.29073,-4.33111 0.22654,-0.143365 5.30319,3.679078 13.50335,10.167284 5.28151,4.178875 11.28277,8.909679 14.17341,11.172917 1.32407,1.036685 2.71745,2.202368 3.0964,2.590408 l 0.689019,0.705524 -4.378299,6.717103 c -2.40809,3.694408 -5.07643,7.794804 -5.92965,9.111999 -4.0769,6.29384 -6.38557,7.62406 -10.91617,6.28973 z M 95.357258,71.720298 C 93.322409,69.985291 75.851019,56.29747 72.611239,53.900104 c -1.69372,-1.253313 -3.6806,-2.843875 -4.41529,-3.534586 -0.7347,-0.690709 -1.76507,-1.648603 -2.28974,-2.128654 l -0.95394,-0.872821 2.70709,-3.723417 2.70709,-3.723417 1.06688,0.814807 c 0.58678,0.448145 2.26909,1.793242 3.73847,2.989104 1.46938,1.195866 5.81074,4.672049 9.64746,7.724857 9.945409,7.913374 15.710341,12.533075 16.597291,13.300185 l 0.76816,0.664381 -1.42597,1.490344 c -0.784272,0.819692 -1.385382,1.615088 -1.335802,1.767545 0.072,0.22137 -2.61122,4.09222 -2.82143,4.070229 -0.0312,-0.0032 -0.59118,-0.461538 -1.24425,-1.018363 z m 6.085332,-9.721892 c -1.06122,-0.891161 -3.866402,-3.120809 -6.233742,-4.954765 -2.367349,-1.833961 -6.374759,-4.972573 -8.905359,-6.974698 -2.53061,-2.002126 -6.47122,-5.100622 -8.75693,-6.885554 -2.28571,-1.784929 -4.53082,-3.558017 -4.98914,-3.940197 l -0.83331,-0.694871 1.38541,-1.823294 c 0.76197,-1.002815 1.5589,-2.075264 1.77095,-2.383223 0.36271,-0.526782 0.51452,-0.470891 2.56477,0.944281 3.13006,2.160504 4.37422,2.741852 6.67265,3.117886 4.63927,0.759003 8.15403,-0.674925 11.739359,-4.789376 1.74516,-2.002713 2.22044,-2.876279 4.839752,-8.895488 5.17306,-11.887787 12.34969,-20.9981587 18.58479,-23.5924189 2.16924,-0.90256876 3.63985,-0.91092196 5.16003,-0.029313 1.31204,0.7609087 2.18768,2.5441292 2.21646,4.5137272 0.0395,2.705013 -2.90603,9.3641577 -6.00676,13.5798137 -2.4093,3.275604 -7.63675,8.897054 -11.09303,11.929119 -5.20632,4.56731 -7.2736,6.872036 -8.57231,9.556911 -1.112152,2.299163 -1.179362,2.597308 -1.233392,5.47126 -0.0499,2.656144 0.0383,3.269655 0.699092,4.863342 0.98503,2.375487 2.38666,4.103599 4.87466,6.010099 l 2.01811,1.546434 -0.89728,1.160077 c -0.49353,0.638043 -1.1977,1.741842 -1.56484,2.45289 -0.36714,0.711048 -0.85719,1.325403 -1.089,1.365234 -0.23179,0.03984 -1.28971,-0.656711 -2.35094,-1.547876 z"
         style="display:inline;fill:#f7ca06;stroke-width:0.30038086" />
      <g
         id="g851"
         transform="translate(2.279059,1.469379)">
        <g
           transform="translate(0,-3e-6)"
           id="g849">
          <path
             inkscape:connector-curvature="0"
             id="path847"
             d="M 50.629383,162.96348 C 47.281519,162.70069 40.93339,161.32339 37.191807,160.04804 34.015165,158.96526 26.31066,154.93 23.616492,152.93793 15.918423,147.24598 8.957045,138.9207 5.26945,130.99627 1.469277,122.82995 -0.760233,113.69738 -0.560854,107.1141 -0.173845,94.335505 0.725691,89.473445 4.225601,81.243005 10.118786,67.384488 21.844731,56.217851 36.232405,50.762862 c 3.238252,-1.227763 9.796418,-2.76285 13.506443,-3.161488 2.304056,-0.247572 9.44148,-0.302856 9.664141,-0.07486 0.26371,0.270031 -4.430254,6.946594 -6.326574,8.998742 -0.205147,0.222005 -0.500499,0.647593 -0.656333,0.945743 -0.203117,0.388633 -1.189977,0.73703 -3.485983,1.230679 -4.193117,0.901532 -7.47063,2.092033 -11.695728,4.248271 -4.505474,2.299325 -7.335194,4.28244 -10.99042,7.70226 -7.263422,6.795648 -12.075447,15.646406 -13.764206,25.316516 -0.260022,1.48891 -0.594395,3.32263 -0.743052,4.074935 -0.439264,2.22293 -0.125397,9.51464 0.556058,12.91824 2.05135,10.24571 6.866722,18.99891 14.337723,26.06254 3.057429,2.89073 5.180951,4.42058 9.004241,6.4869 5.909308,3.19375 10.954031,4.71924 17.563906,5.31119 8.974784,0.80374 18.743883,-1.05248 26.605283,-5.05526 3.8697,-1.97033 5.744907,-3.26985 9.836827,-6.81689 0.85862,-0.74427 5.40278,-5.49409 7.26998,-7.59896 1.04553,-1.17862 4.537569,-6.37839 5.715699,-8.51085 2.00331,-3.62611 4.3756,-10.48619 5.25563,-15.19794 1.2726,-6.81359 1.34218,-15.386625 0.18853,-23.223145 -0.41599,-2.82568 -0.71002,-5.185021 -0.65342,-5.24299 0.22036,-0.22564 2.54974,6.26231 3.12673,8.70881 1.03584,4.39211 1.24378,6.03418 1.53385,12.11326 0.28023,5.872835 0.0636,11.131675 -0.62145,15.091045 -0.52481,3.03302 -2.02909,8.88908 -2.63576,10.26092 -0.31365,0.70923 -1.30078,2.96032 -2.19363,5.0024 -2.94505,6.73576 -8.948559,14.67254 -15.036889,19.87912 -2.99759,2.56347 -6.636162,4.88614 -11.428547,7.29544 -4.917634,2.47227 -9.129638,3.83553 -15.287512,4.94795 -3.158021,0.5705 -10.147896,0.80992 -14.248559,0.48804 z M 93.820321,71.663056 C 91.785471,69.928049 74.314085,56.240228 71.074304,53.842862 69.380589,52.589549 67.393704,50.998987 66.659013,50.308276 65.924321,49.617567 64.893945,48.659673 64.36928,48.179622 l -0.953939,-0.872821 2.707087,-3.723417 2.707087,-3.723417 1.066879,0.814807 c 0.58678,0.448145 2.26909,1.793242 3.738473,2.989104 1.469382,1.195866 5.810739,4.672049 9.64746,7.724857 9.945404,7.913374 15.710334,12.533075 16.597284,13.300185 l 0.768159,0.664381 -1.425969,1.490344 c -0.78427,0.819692 -1.38538,1.615088 -1.3358,1.767545 0.072,0.22137 -2.61122,4.09222 -2.82143,4.070229 -0.0312,-0.0032 -0.59118,-0.461538 -1.24425,-1.018363 z m 6.08533,-9.721892 c -1.06122,-0.891161 -3.8664,-3.120809 -6.23374,-4.954765 -2.36734,-1.833961 -6.37475,-4.972573 -8.905357,-6.974698 C 82.235948,48.009575 78.295333,44.911079 76.009626,43.126147 73.72392,41.341218 71.478811,39.56813 71.020491,39.18595 l -0.833318,-0.694871 1.385413,-1.823294 c 0.761969,-1.002815 1.558896,-2.075264 1.770946,-2.383223 0.362716,-0.526782 0.514524,-0.470891 2.564777,0.944281 3.130054,2.160504 4.374213,2.741852 6.672647,3.117886 4.639275,0.759003 8.154035,-0.674925 11.739355,-4.789376 1.74516,-2.002713 2.22044,-2.876279 4.83975,-8.895488 5.173059,-11.887787 12.349689,-20.998157 18.584789,-23.592417 2.16924,-0.902569 3.63985,-0.910922 5.16003,-0.02931 1.31204,0.760909 2.18768,2.544129 2.21646,4.513727 0.0395,2.705012 -2.90603,9.364156 -6.00676,13.579812 -2.4093,3.275604 -7.63675,8.897054 -11.09303,11.929119 -5.20632,4.56731 -7.2736,6.872036 -8.572309,9.556911 -1.11215,2.299163 -1.17936,2.597308 -1.23339,5.47126 -0.0499,2.656144 0.0383,3.269655 0.69909,4.863342 0.98503,2.375487 2.386659,4.103599 4.874659,6.010099 l 2.01811,1.546434 -0.89728,1.160077 c -0.49353,0.638043 -1.1977,1.741842 -1.56484,2.45289 -0.36714,0.711048 -0.85719,1.325403 -1.089,1.365234 -0.23179,0.03984 -1.28971,-0.656711 -2.350939,-1.547876 z"
             style="fill:#011b4b;stroke-width:0.30038086" />
        </g>
      </g>
    </g>
  </g>
  <g
     inkscape:groupmode="layer"
     id="layer5"
     inkscape:label="layer main navy"
     style="display:inline"
     transform="translate(-7.4266201,124.81066)">
    <g
       id="g843"
       transform="matrix(0.18036673,-0.03134649,-0.03180368,-0.17777487,71.009242,0.63649558)">
      <path
         style="display:inline;fill:#f7ca06;stroke-width:0.30038086"
         d="m 52.166319,163.02072 c -3.34787,-0.26279 -9.696,-1.64009 -13.43758,-2.91544 -3.17664,-1.08279 -10.88115,-5.11804 -13.57531,-7.11011 C 17.455359,147.30321 10.493979,138.97793 6.8063843,131.05351 3.0062114,122.88719 0.77670139,113.75462 0.97608039,107.17134 1.3630894,94.392751 2.2626254,89.530688 5.7625353,81.300245 11.65572,67.44173 23.381669,56.275093 37.769339,50.820104 c 3.23825,-1.227763 9.79642,-2.76285 13.50644,-3.161488 2.30406,-0.247572 9.44148,-0.302856 9.66414,-0.07486 0.26371,0.270031 -4.43025,6.946594 -6.32657,8.998742 -0.20515,0.222005 -0.5005,0.647593 -0.65633,0.945743 -0.20312,0.388633 -1.18998,0.73703 -3.48599,1.230679 -4.19311,0.901532 -7.47063,2.092033 -11.69572,4.248271 -4.50548,2.299325 -7.3352,4.28244 -10.99042,7.70226 -7.26343,6.795648 -12.075451,15.646406 -13.76421,25.31652 -0.260022,1.48891 -0.594395,3.322615 -0.743052,4.074929 -0.439264,2.22293 -0.125397,9.51464 0.556058,12.91824 2.051354,10.24571 6.866724,18.99891 14.337724,26.06254 3.05743,2.89073 5.18095,4.42058 9.00424,6.4869 5.90931,3.19375 10.95403,4.71924 17.5639,5.31119 8.97479,0.80374 18.74389,-1.05248 26.60529,-5.05526 3.8697,-1.97033 5.7449,-3.26985 9.83682,-6.81689 0.85862,-0.74427 5.402789,-5.49409 7.269989,-7.59896 1.04553,-1.17862 4.537572,-6.37839 5.715702,-8.51085 2.00331,-3.62611 4.3756,-10.48619 5.25563,-15.19794 1.2726,-6.81359 1.34218,-15.38662 0.18853,-23.223145 -0.41599,-2.82568 -0.71002,-5.185019 -0.65342,-5.242988 0.22036,-0.22564 2.54974,6.262305 3.12673,8.708813 1.03584,4.392111 1.24378,6.034171 1.53385,12.11325 0.28023,5.87284 0.0636,11.13168 -0.62145,15.09105 -0.52481,3.03302 -2.02909,8.88908 -2.63576,10.26092 -0.31365,0.70923 -1.30078,2.96032 -2.19363,5.0024 -2.94505,6.73576 -8.948562,14.67254 -15.036901,19.87912 -2.99759,2.56347 -6.63616,4.88614 -11.42854,7.29544 -4.91764,2.47227 -9.12964,3.83553 -15.28751,4.94795 -3.15803,0.5705 -10.1479,0.80992 -14.24856,0.48804 z m 4.74952,-24.61249 c -8.2069,-1.75961 -13.61123,-4.6338 -19.34389,-10.28766 -3.72261,-3.67143 -5.83306,-6.61554 -8.21069,-11.45392 -2.16847,-4.41275 -3.17192,-7.928 -3.63867,-12.74685 -0.40932,-4.225894 -0.22143,-7.562439 0.6273,-11.139792 0.75349,-3.175867 0.92114,-3.627788 2.80952,-7.573088 1.86731,-3.901289 4.50942,-7.532156 7.44942,-10.237196 2.4494,-2.253642 5.47124,-4.64864 5.87158,-4.653592 0.14211,-0.0018 -0.20306,0.578127 -0.76705,1.288631 -3.5243,4.439861 -6.62162,10.251036 -8.05988,15.121952 -1.148,3.887871 -1.46929,6.649266 -1.29086,11.094496 0.1865,4.646269 1.19817,8.492909 3.23509,12.300579 5.01656,9.37761 13.54131,15.58725 24.88027,18.12342 7.47983,1.67299 17.26404,-1.03571 24.60669,-6.81223 2.87426,-2.26121 2.5287,-1.91682 5.27045,-5.25266 2.8169,-3.42727 4.10646,-5.58369 5.443059,-9.10176 1.67986,-4.42159 2.11788,-6.51229 2.28976,-10.929119 0.1856,-4.769439 -0.46068,-8.971651 -2.04781,-13.314979 l -0.92246,-2.524441 0.88209,-1.275048 c 1.88914,-2.730738 4.150752,-5.898576 5.189222,-7.268577 1.24693,-1.645001 1.30524,-1.618839 2.4861,1.115298 3.9469,9.138499 5.38494,18.762458 4.15803,27.827126 -0.93218,6.88709 -3.48395,13.49583 -7.48671,19.38948 -2.320122,3.41616 -7.116591,8.39813 -10.373421,10.77465 -2.46214,1.79664 -7.83107,4.68661 -10.21507,5.49854 -2.44216,0.83173 -6.92236,1.96684 -9.09564,2.30448 -3.31383,0.51483 -10.77417,0.36952 -13.74643,-0.26774 z m 16.47489,-41.859499 c -1.19784,-0.35277 -2.57246,-0.39126 -7.12428,-0.19948 -8.67608,0.36558 -8.78275,0.35216 -12.75511,-1.60442 -1.89281,-0.9323 -2.23355,-1.00396 -4.00741,-0.84283 -1.59683,0.14507 -2.37209,0.0343 -4.39634,-0.628 -2.31625,-0.757858 -2.48399,-0.871548 -2.9156,-1.976115 -0.28962,-0.741166 -0.75732,-1.298959 -1.27232,-1.517392 -1.04867,-0.444786 -1.51768,-1.782899 -1.51768,-4.330064 0,-3.369178 0.62604,-4.452591 9.47356,-16.394652 4.39154,-5.927534 6.88911,-9.321835 10.98639,-14.930902 1.68004,-2.299929 3.16087,-4.248929 3.29073,-4.33111 0.22654,-0.143365 5.30319,3.679078 13.50335,10.167284 5.28151,4.178875 11.28277,8.909679 14.17341,11.172917 1.32407,1.036685 2.71745,2.202368 3.0964,2.590408 l 0.689019,0.705524 -4.378299,6.717103 c -2.40809,3.694408 -5.07643,7.794804 -5.92965,9.111999 -4.0769,6.29384 -6.38557,7.62406 -10.91617,6.28973 z M 95.357258,71.720298 C 93.322409,69.985291 75.851019,56.29747 72.611239,53.900104 c -1.69372,-1.253313 -3.6806,-2.843875 -4.41529,-3.534586 -0.7347,-0.690709 -1.76507,-1.648603 -2.28974,-2.128654 l -0.95394,-0.872821 2.70709,-3.723417 2.70709,-3.723417 1.06688,0.814807 c 0.58678,0.448145 2.26909,1.793242 3.73847,2.989104 1.46938,1.195866 5.81074,4.672049 9.64746,7.724857 9.945409,7.913374 15.710341,12.533075 16.597291,13.300185 l 0.76816,0.664381 -1.42597,1.490344 c -0.784272,0.819692 -1.385382,1.615088 -1.335802,1.767545 0.072,0.22137 -2.61122,4.09222 -2.82143,4.070229 -0.0312,-0.0032 -0.59118,-0.461538 -1.24425,-1.018363 z m 6.085332,-9.721892 c -1.06122,-0.891161 -3.866402,-3.120809 -6.233742,-4.954765 -2.367349,-1.833961 -6.374759,-4.972573 -8.905359,-6.974698 -2.53061,-2.002126 -6.47122,-5.100622 -8.75693,-6.885554 -2.28571,-1.784929 -4.53082,-3.558017 -4.98914,-3.940197 l -0.83331,-0.694871 1.38541,-1.823294 c 0.76197,-1.002815 1.5589,-2.075264 1.77095,-2.383223 0.36271,-0.526782 0.51452,-0.470891 2.56477,0.944281 3.13006,2.160504 4.37422,2.741852 6.67265,3.117886 4.63927,0.759003 8.15403,-0.674925 11.739359,-4.789376 1.74516,-2.002713 2.22044,-2.876279 4.839752,-8.895488 5.17306,-11.887787 12.34969,-20.9981587 18.58479,-23.5924189 2.16924,-0.90256876 3.63985,-0.91092196 5.16003,-0.029313 1.31204,0.7609087 2.18768,2.5441292 2.21646,4.5137272 0.0395,2.705013 -2.90603,9.3641577 -6.00676,13.5798137 -2.4093,3.275604 -7.63675,8.897054 -11.09303,11.929119 -5.20632,4.56731 -7.2736,6.872036 -8.57231,9.556911 -1.112152,2.299163 -1.179362,2.597308 -1.233392,5.47126 -0.0499,2.656144 0.0383,3.269655 0.699092,4.863342 0.98503,2.375487 2.38666,4.103599 4.87466,6.010099 l 2.01811,1.546434 -0.89728,1.160077 c -0.49353,0.638043 -1.1977,1.741842 -1.56484,2.45289 -0.36714,0.711048 -0.85719,1.325403 -1.089,1.365234 -0.23179,0.03984 -1.28971,-0.656711 -2.35094,-1.547876 z"
         id="path903"
         inkscape:connector-curvature="0" />
      <g
         transform="translate(2.279059,1.469379)"
         id="g948">
        <g
           id="g944"
           transform="translate(0,-3e-6)">
          <path
             style="fill:#011b4b;stroke-width:0.30038086"
             d="M 50.629383,162.96348 C 47.281519,162.70069 40.93339,161.32339 37.191807,160.04804 34.015165,158.96526 26.31066,154.93 23.616492,152.93793 15.918423,147.24598 8.957045,138.9207 5.26945,130.99627 1.469277,122.82995 -0.760233,113.69738 -0.560854,107.1141 -0.173845,94.335505 0.725691,89.473445 4.225601,81.243005 10.118786,67.384488 21.844731,56.217851 36.232405,50.762862 c 3.238252,-1.227763 9.796418,-2.76285 13.506443,-3.161488 2.304056,-0.247572 9.44148,-0.302856 9.664141,-0.07486 0.26371,0.270031 -4.430254,6.946594 -6.326574,8.998742 -0.205147,0.222005 -0.500499,0.647593 -0.656333,0.945743 -0.203117,0.388633 -1.189977,0.73703 -3.485983,1.230679 -4.193117,0.901532 -7.47063,2.092033 -11.695728,4.248271 -4.505474,2.299325 -7.335194,4.28244 -10.99042,7.70226 -7.263422,6.795648 -12.075447,15.646406 -13.764206,25.316516 -0.260022,1.48891 -0.594395,3.32263 -0.743052,4.074935 -0.439264,2.22293 -0.125397,9.51464 0.556058,12.91824 2.05135,10.24571 6.866722,18.99891 14.337723,26.06254 3.057429,2.89073 5.180951,4.42058 9.004241,6.4869 5.909308,3.19375 10.954031,4.71924 17.563906,5.31119 8.974784,0.80374 18.743883,-1.05248 26.605283,-5.05526 3.8697,-1.97033 5.744907,-3.26985 9.836827,-6.81689 0.85862,-0.74427 5.40278,-5.49409 7.26998,-7.59896 1.04553,-1.17862 4.537569,-6.37839 5.715699,-8.51085 2.00331,-3.62611 4.3756,-10.48619 5.25563,-15.19794 1.2726,-6.81359 1.34218,-15.386625 0.18853,-23.223145 -0.41599,-2.82568 -0.71002,-5.185021 -0.65342,-5.24299 0.22036,-0.22564 2.54974,6.26231 3.12673,8.70881 1.03584,4.39211 1.24378,6.03418 1.53385,12.11326 0.28023,5.872835 0.0636,11.131675 -0.62145,15.091045 -0.52481,3.03302 -2.02909,8.88908 -2.63576,10.26092 -0.31365,0.70923 -1.30078,2.96032 -2.19363,5.0024 -2.94505,6.73576 -8.948559,14.67254 -15.036889,19.87912 -2.99759,2.56347 -6.636162,4.88614 -11.428547,7.29544 -4.917634,2.47227 -9.129638,3.83553 -15.287512,4.94795 -3.158021,0.5705 -10.147896,0.80992 -14.248559,0.48804 z M 93.820321,71.663056 C 91.785471,69.928049 74.314085,56.240228 71.074304,53.842862 69.380589,52.589549 67.393704,50.998987 66.659013,50.308276 65.924321,49.617567 64.893945,48.659673 64.36928,48.179622 l -0.953939,-0.872821 2.707087,-3.723417 2.707087,-3.723417 1.066879,0.814807 c 0.58678,0.448145 2.26909,1.793242 3.738473,2.989104 1.469382,1.195866 5.810739,4.672049 9.64746,7.724857 9.945404,7.913374 15.710334,12.533075 16.597284,13.300185 l 0.768159,0.664381 -1.425969,1.490344 c -0.78427,0.819692 -1.38538,1.615088 -1.3358,1.767545 0.072,0.22137 -2.61122,4.09222 -2.82143,4.070229 -0.0312,-0.0032 -0.59118,-0.461538 -1.24425,-1.018363 z m 6.08533,-9.721892 c -1.06122,-0.891161 -3.8664,-3.120809 -6.23374,-4.954765 -2.36734,-1.833961 -6.37475,-4.972573 -8.905357,-6.974698 C 82.235948,48.009575 78.295333,44.911079 76.009626,43.126147 73.72392,41.341218 71.478811,39.56813 71.020491,39.18595 l -0.833318,-0.694871 1.385413,-1.823294 c 0.761969,-1.002815 1.558896,-2.075264 1.770946,-2.383223 0.362716,-0.526782 0.514524,-0.470891 2.564777,0.944281 3.130054,2.160504 4.374213,2.741852 6.672647,3.117886 4.639275,0.759003 8.154035,-0.674925 11.739355,-4.789376 1.74516,-2.002713 2.22044,-2.876279 4.83975,-8.895488 5.173059,-11.887787 12.349689,-20.998157 18.584789,-23.592417 2.16924,-0.902569 3.63985,-0.910922 5.16003,-0.02931 1.31204,0.760909 2.18768,2.544129 2.21646,4.513727 0.0395,2.705012 -2.90603,9.364156 -6.00676,13.579812 -2.4093,3.275604 -7.63675,8.897054 -11.09303,11.929119 -5.20632,4.56731 -7.2736,6.872036 -8.572309,9.556911 -1.11215,2.299163 -1.17936,2.597308 -1.23339,5.47126 -0.0499,2.656144 0.0383,3.269655 0.69909,4.863342 0.98503,2.375487 2.386659,4.103599 4.874659,6.010099 l 2.01811,1.546434 -0.89728,1.160077 c -0.49353,0.638043 -1.1977,1.741842 -1.56484,2.45289 -0.36714,0.711048 -0.85719,1.325403 -1.089,1.365234 -0.23179,0.03984 -1.28971,-0.656711 -2.350939,-1.547876 z"
             id="path901"
             inkscape:connector-curvature="0" />
        </g>
      </g>
    </g>
    <g
       id="g2405"
       transform="matrix(0.98291983,0,0,1,3.4119297,0)">
      <path
         inkscape:connector-curvature="0"
         id="path901-0-7"
         d="m 94.44138,-4.3088118 c 0.02188,0.5774092 -0.103502,0.6635488 -0.469416,1.0173928 l 105.787716,0.041003 v -1.0388808 z"
         style="display:inline;fill:#f7ca06;fill-opacity:1;stroke-width:0.03822862"
         sodipodi:nodetypes="ccccc" />
      <path
         inkscape:connector-curvature="0"
         id="path901-0"
         d="m 94.200151,-4.4114156 c 0.06003,0.4617691 -0.14343,0.7383574 -0.422626,1.0526026 L 199.5346,-3.362983 v -1.0438999 z"
         style="fill:#011b4b;stroke-width:0.03841332"
         sodipodi:nodetypes="ccccc" />
    </g>
  </g>
  <text
     xml:space="preserve"
     style="font-style:normal;font-variant:normal;font-weight:normal;font-stretch:normal;font-size:13.33333302px;line-height:125%;font-family:Lato;-inkscape-font-specification:'Lato, Normal';font-variant-ligatures:normal;font-variant-caps:normal;font-variant-numeric:normal;font-feature-settings:normal;text-align:start;letter-spacing:0px;word-spacing:0px;writing-mode:lr-tb;text-anchor:start;fill:#011b4b;fill-opacity:1;stroke:none;stroke-width:1px;stroke-linecap:butt;stroke-linejoin:miter;stroke-opacity:1"
     x="86.716843"
     y="106.82806"
     id="text846"><tspan
       sodipodi:role="line"
       id="tspan844"
       x="86.716843"
       y="106.82806"
       style="font-style:normal;font-variant:normal;font-weight:bold;font-stretch:normal;font-size:16px;font-family:Lato;-inkscape-font-specification:'Lato, Bold';font-variant-ligatures:normal;font-variant-caps:normal;font-variant-numeric:normal;font-feature-settings:normal;text-align:start;letter-spacing:-1.11000001px;word-spacing:0px;writing-mode:lr-tb;text-anchor:start;fill:#011b4b;fill-opacity:1">DAVE GAGOL</tspan></text>
  <text
     xml:space="preserve"
     style="font-style:normal;font-variant:normal;font-weight:normal;font-stretch:normal;font-size:13.33333302px;line-height:125%;font-family:Lato;-inkscape-font-specification:'Lato, Normal';font-variant-ligatures:normal;font-variant-caps:normal;font-variant-numeric:normal;font-feature-settings:normal;text-align:start;letter-spacing:0px;word-spacing:-2.81999993px;writing-mode:lr-tb;text-anchor:start;fill:#f7ca06;fill-opacity:1;stroke:none;stroke-width:1px;stroke-linecap:butt;stroke-linejoin:miter;stroke-opacity:1"
     x="87.439568"
     y="117.71788"
     id="text850"><tspan
       sodipodi:role="line"
       id="tspan848"
       x="87.439568"
       y="117.71788"
       style="font-style:normal;font-variant:normal;font-weight:normal;font-stretch:normal;font-size:9.33333302px;font-family:Lato;-inkscape-font-specification:Lato;font-variant-ligatures:normal;font-variant-caps:normal;font-variant-numeric:normal;font-feature-settings:normal;text-align:start;word-spacing:-2.81999993px;writing-mode:lr-tb;text-anchor:start;fill:#f7ca06;fill-opacity:1">PAINTING &amp; DECRATING</tspan></text>
  <text
     xml:space="preserve"
     style="font-style:normal;font-variant:normal;font-weight:normal;font-stretch:normal;font-size:13.33333302px;line-height:125%;font-family:Lato;-inkscape-font-specification:'Lato, Normal';font-variant-ligatures:normal;font-variant-caps:normal;font-variant-numeric:normal;font-feature-settings:normal;text-align:start;letter-spacing:0px;word-spacing:0px;writing-mode:lr-tb;text-anchor:start;fill:#000000;fill-opacity:1;stroke:none;stroke-width:1px;stroke-linecap:butt;stroke-linejoin:miter;stroke-opacity:1"
     x="419.96487"
     y="124.71467"
     id="text858"><tspan
       sodipodi:role="line"
       id="tspan856"
       x="419.96487"
       y="136.51154" /></text>
</svg>
