<?xml version="1.0" encoding="UTF-8" standalone="no"?>
<svg
   xmlns:dc="http://purl.org/dc/elements/1.1/"
   xmlns:cc="http://creativecommons.org/ns#"
   xmlns:rdf="http://www.w3.org/1999/02/22-rdf-syntax-ns#"
   xmlns:svg="http://www.w3.org/2000/svg"
   xmlns="http://www.w3.org/2000/svg"
   xmlns:sodipodi="http://sodipodi.sourceforge.net/DTD/sodipodi-0.dtd"
   xmlns:inkscape="http://www.inkscape.org/namespaces/inkscape"
   width="210"
   height="210"
   version="1.1"
   id="svg880"
   sodipodi:docname="to-top.svg"
   inkscape:version="0.92.3 (2405546, 2018-03-11)"
   inkscape:export-filename="/home/pawel/Projects/Static/PaintingAndDecoarting/app/images/to-top.png"
   inkscape:export-xdpi="36.923073"
   inkscape:export-ydpi="36.923073">
  <metadata
     id="metadata886">
    <rdf:RDF>
      <cc:Work
         rdf:about="">
        <dc:format>image/svg+xml</dc:format>
        <dc:type
           rdf:resource="http://purl.org/dc/dcmitype/StillImage" />
      </cc:Work>
    </rdf:RDF>
  </metadata>
  <defs
     id="defs884" />
  <sodipodi:namedview
     pagecolor="#ffffff"
     bordercolor="#666666"
     borderopacity="1"
     objecttolerance="10"
     gridtolerance="10"
     guidetolerance="10"
     inkscape:pageopacity="0"
     inkscape:pageshadow="2"
     inkscape:window-width="1678"
     inkscape:window-height="1030"
     id="namedview882"
     showgrid="false"
     inkscape:zoom="2.6285714"
     inkscape:cx="52.119567"
     inkscape:cy="45.59114"
     inkscape:window-x="0"
     inkscape:window-y="18"
     inkscape:window-maximized="0"
     inkscape:current-layer="svg880" />
  <linearGradient
     id="a"
     x1="-1148.9"
     x2="-1148.9"
     y1="-205.3"
     y2="-204.3"
     gradientTransform="matrix(0,207.53,207.53,0,42606.8,238542.1)"
     gradientUnits="userSpaceOnUse">
    <stop
       offset="0"
       stop-color="#fccd05"
       id="stop869" />
    <stop
       offset="1"
       stop-color="#fccd05"
       stop-opacity=".9"
       id="stop871" />
  </linearGradient>
  <path
     d="m 82.70002,100.20002 22.3,-24.9 22.3,24.8"
     id="path876"
     inkscape:connector-curvature="0"
     style="display:inline;fill:none;stroke:#ffffff;stroke-width:5;stroke-linecap:round;stroke-linejoin:round" />
  <path
     d="m 105.00002,134.40002 v -59"
     id="path878"
     inkscape:connector-curvature="0"
     style="display:inline;fill:#313e59;stroke:#ffffff;stroke-width:5;stroke-linecap:round;fill-opacity:0" />
  <g
     id="g859">
    <path
       inkscape:connector-curvature="0"
       id="circle874"
       d="M 174.832,182.06813 A 104,104 0 0 0 182.06814,35.16803 104,104 0 0 0 35.16803,27.93189 104,104 0 0 0 27.93189,174.83201 104,104 0 0 0 174.832,182.06813 Z"
       style="display:inline;opacity:1;fill:#fccd05;fill-opacity:1" />
    <path
       inkscape:export-ydpi="96"
       inkscape:export-xdpi="96"
       inkscape:connector-curvature="0"
       id="path855"
       d="m 103.46739,136.11538 c -0.3288,-0.3288 -0.63773,-0.62839 -0.6865,-0.66576 -0.0488,-0.0374 -0.17718,-12.115 -0.28533,-26.83919 l -0.19664,-26.771265 -9.244824,10.317456 c -7.917268,8.835879 -9.397475,10.317459 -10.307885,10.317459 -1.275336,0 -2.322296,-1.04463 -2.322296,-2.31712 0,-0.675778 3.0267,-4.313725 11.211334,-13.475479 6.166233,-6.902388 11.623921,-12.867454 12.128191,-13.255704 0.58847,-0.453073 1.20242,-0.615277 1.71412,-0.452869 0.68725,0.218124 4.99608,4.872757 20.87177,22.546786 2.47113,2.751052 3.15067,3.754311 3.15067,4.651556 0,1.49204 -1.52343,2.59706 -2.86835,2.08057 -0.49896,-0.19162 -4.97958,-4.88508 -9.95693,-10.429917 L 107.625,81.740381 107.43478,108.68692 c -0.18437,26.11913 -0.21289,26.96311 -0.92869,27.48641 -0.97218,0.71074 -2.29524,0.68551 -3.0387,-0.058 z"
       style="opacity:1;fill:#313e59;fill-opacity:1;stroke:none;stroke-width:0.22826087;stroke-miterlimit:4;stroke-dasharray:none;stroke-opacity:1" />
  </g>
</svg>
